<svg width="172" height="37" viewBox="0 0 172 37" fill="none" xmlns="http://www.w3.org/2000/svg">
<path d="M25.112 2.496V7.92H16.184V36H9.464V7.92H0.536V2.496H25.112ZM36.7351 13.536C37.5991 12.128 38.7191 11.024 40.0951 10.224C41.5031 9.424 43.1031 9.024 44.8951 9.024V16.08H43.1191C41.0071 16.08 39.4071 16.576 38.3191 17.568C37.2631 18.56 36.7351 20.288 36.7351 22.752V36H30.0151V9.408H36.7351V13.536ZM47.6934 22.608C47.6934 19.92 48.2214 17.536 49.2774 15.456C50.3654 13.376 51.8214 11.776 53.6454 10.656C55.5014 9.536 57.5654 8.976 59.8374 8.976C61.8214 8.976 63.5494 9.376 65.0214 10.176C66.5254 10.976 67.7254 11.984 68.6214 13.2V9.408H75.3894V36H68.6214V32.112C67.7574 33.36 66.5574 34.4 65.0214 35.232C63.5174 36.032 61.7734 36.432 59.7894 36.432C57.5494 36.432 55.5014 35.856 53.6454 34.704C51.8214 33.552 50.3654 31.936 49.2774 29.856C48.2214 27.744 47.6934 25.328 47.6934 22.608ZM68.6214 22.704C68.6214 21.072 68.3014 19.68 67.6614 18.528C67.0214 17.344 66.1574 16.448 65.0694 15.84C63.9814 15.2 62.8134 14.88 61.5654 14.88C60.3174 14.88 59.1654 15.184 58.1094 15.792C57.0534 16.4 56.1894 17.296 55.5174 18.48C54.8774 19.632 54.5574 21.008 54.5574 22.608C54.5574 24.208 54.8774 25.616 55.5174 26.832C56.1894 28.016 57.0534 28.928 58.1094 29.568C59.1974 30.208 60.3494 30.528 61.5654 30.528C62.8134 30.528 63.9814 30.224 65.0694 29.616C66.1574 28.976 67.0214 28.08 67.6614 26.928C68.3014 25.744 68.6214 24.336 68.6214 22.704ZM80.2246 22.608C80.2246 19.92 80.7526 17.536 81.8086 15.456C82.8966 13.376 84.3686 11.776 86.2246 10.656C88.0806 9.536 90.1446 8.976 92.4166 8.976C94.1446 8.976 95.7926 9.36 97.3606 10.128C98.9286 10.864 100.177 11.856 101.105 13.104V0.48H107.921V36H101.105V32.064C100.273 33.376 99.1046 34.432 97.6006 35.232C96.0966 36.032 94.3526 36.432 92.3686 36.432C90.1286 36.432 88.0806 35.856 86.2246 34.704C84.3686 33.552 82.8966 31.936 81.8086 29.856C80.7526 27.744 80.2246 25.328 80.2246 22.608ZM101.153 22.704C101.153 21.072 100.833 19.68 100.193 18.528C99.5526 17.344 98.6886 16.448 97.6006 15.84C96.5126 15.2 95.3446 14.88 94.0966 14.88C92.8486 14.88 91.6966 15.184 90.6406 15.792C89.5846 16.4 88.7206 17.296 88.0486 18.48C87.4086 19.632 87.0886 21.008 87.0886 22.608C87.0886 24.208 87.4086 25.616 88.0486 26.832C88.7206 28.016 89.5846 28.928 90.6406 29.568C91.7286 30.208 92.8806 30.528 94.0966 30.528C95.3446 30.528 96.5126 30.224 97.6006 29.616C98.6886 28.976 99.5526 28.08 100.193 26.928C100.833 25.744 101.153 24.336 101.153 22.704ZM139.204 22.128C139.204 23.088 139.14 23.952 139.012 24.72H119.572C119.732 26.64 120.404 28.144 121.588 29.232C122.772 30.32 124.228 30.864 125.956 30.864C128.452 30.864 130.228 29.792 131.284 27.648H138.532C137.764 30.208 136.292 32.32 134.116 33.984C131.94 35.616 129.268 36.432 126.1 36.432C123.54 36.432 121.236 35.872 119.188 34.752C117.172 33.6 115.588 31.984 114.436 29.904C113.316 27.824 112.756 25.424 112.756 22.704C112.756 19.952 113.316 17.536 114.436 15.456C115.556 13.376 117.124 11.776 119.14 10.656C121.156 9.536 123.476 8.976 126.1 8.976C128.628 8.976 130.884 9.52 132.868 10.608C134.884 11.696 136.436 13.248 137.524 15.264C138.644 17.248 139.204 19.536 139.204 22.128ZM132.244 20.208C132.212 18.48 131.588 17.104 130.372 16.08C129.156 15.024 127.668 14.496 125.908 14.496C124.244 14.496 122.836 15.008 121.684 16.032C120.564 17.024 119.876 18.416 119.62 20.208H132.244ZM164.173 36L156.925 24.72L150.349 36H142.765L153.325 19.104L142.621 2.496H150.349L157.597 13.728L164.125 2.496H171.709L161.197 19.344L171.901 36H164.173Z" fill="#23276A"/>
</svg>
